<?xml version="1.0" standalone="no"?>
<!DOCTYPE svg PUBLIC "-//W3C//DTD SVG 20010904//EN"
 "http://www.w3.org/TR/2001/REC-SVG-20010904/DTD/svg10.dtd">
<svg version="1.0" xmlns="http://www.w3.org/2000/svg"
 width="2000.000000pt" height="1500.000000pt" viewBox="0 0 2000.000000 1500.000000"
 preserveAspectRatio="xMidYMid meet">

<g transform="translate(0.000000,1500.000000) scale(0.100000,-0.100000)"
fill="#000000" stroke="none">
<path d="M0 7500 l0 -7500 10000 0 10000 0 0 7500 0 7500 -10000 0 -10000 0 0
-7500z m14835 2089 c208 -25 385 -110 531 -254 137 -135 222 -296 259 -485 19
-100 22 -308 5 -399 -38 -209 -131 -384 -282 -527 -114 -108 -246 -179 -414
-221 -107 -27 -342 -24 -459 5 -260 65 -478 239 -594 476 -71 143 -92 230 -98
406 -6 172 5 257 51 393 114 333 403 565 756 607 97 11 146 11 245 -1z m-8725
-19 c37 -20 41 -42 24 -152 -11 -72 -14 -140 -11 -228 10 -236 74 -403 247
-640 266 -365 320 -487 320 -721 0 -200 -52 -381 -185 -643 -88 -175 -115
-207 -162 -190 -44 15 -54 48 -37 119 18 79 18 226 -1 300 -36 142 -129 288
-324 508 -231 262 -319 389 -374 544 -30 83 -32 96 -32 228 1 132 3 146 33
235 62 178 201 393 369 569 77 80 96 91 133 71z m2349 -782 c190 -432 349
-783 352 -780 4 4 161 359 350 790 l343 782 118 0 118 0 0 -940 0 -940 -110 0
-110 0 -2 718 -3 718 -315 -718 -315 -719 -79 3 -78 3 -317 718 -316 717 -3
-720 -2 -720 -110 0 -110 0 0 933 c0 514 3 937 7 941 4 3 58 5 121 4 l115 -3
346 -787z m2921 -78 c173 -476 327 -898 342 -938 l27 -73 -110 3 -111 3 -87
240 -87 240 -484 0 -484 0 -46 -125 c-26 -69 -66 -178 -89 -242 l-43 -118
-110 0 c-101 0 -110 1 -103 18 4 9 157 428 341 931 184 502 337 918 340 923 3
4 92 7 197 6 l192 -3 315 -865z m1335 105 l500 -764 3 765 2 764 105 0 105 0
0 -940 0 -940 -107 0 -108 0 -500 765 -500 764 -3 -765 -2 -764 -105 0 -105 0
0 940 0 940 108 0 107 0 500 -765z m-9259 -775 c737 -120 1749 -619 2494
-1229 227 -186 337 -290 369 -350 89 -169 56 -419 -88 -665 -123 -210 -308
-359 -481 -387 -80 -14 -115 -6 -343 76 -567 201 -1220 560 -1754 964 -205
155 -317 251 -487 419 -420 414 -588 755 -481 977 29 60 46 81 108 128 51 39
141 71 242 87 83 13 277 4 421 -20z m5499 -719 c235 -62 423 -208 542 -419 19
-35 34 -64 32 -66 -10 -7 -152 -56 -164 -56 -7 0 -28 26 -45 58 -67 118 -212
229 -360 276 -445 141 -847 -67 -952 -492 -31 -124 -30 -331 0 -456 52 -209
188 -383 367 -467 105 -50 177 -64 320 -63 154 0 231 17 355 77 69 33 102 58
170 127 56 56 97 107 119 150 19 36 35 66 35 67 2 2 168 -58 174 -62 2 -2 -11
-32 -29 -66 -131 -261 -336 -415 -628 -474 -116 -24 -354 -16 -459 14 -488
142 -756 623 -646 1157 73 358 350 633 714 710 98 20 352 12 455 -15z m2635
18 c95 -15 234 -64 320 -112 103 -58 242 -196 304 -302 25 -43 42 -82 38 -86
-4 -3 -46 -20 -93 -37 l-87 -31 -50 79 c-125 190 -315 296 -558 307 -366 18
-650 -192 -735 -543 -30 -124 -30 -314 0 -437 68 -283 270 -479 549 -533 320
-61 638 82 772 350 28 55 30 67 30 173 l0 113 -320 0 -320 0 0 90 0 90 430 0
430 0 0 -208 0 -208 -41 -84 c-55 -114 -113 -193 -205 -279 -126 -118 -270
-191 -443 -226 -126 -26 -345 -17 -464 19 -211 63 -385 190 -501 365 -55 83
-88 154 -123 270 -25 80 -27 99 -27 281 0 170 3 205 22 273 48 173 132 316
255 434 142 136 307 216 507 246 55 9 249 6 310 -4z m5285 -4 c112 -24 207
-75 284 -152 67 -69 127 -163 118 -187 -5 -12 -177 -81 -182 -74 -1 2 -13 24
-28 49 -80 140 -271 221 -455 192 -191 -30 -305 -142 -306 -303 -1 -85 16
-130 67 -180 57 -58 120 -87 367 -169 250 -83 355 -132 432 -201 104 -93 148
-192 148 -335 0 -265 -161 -462 -426 -521 -116 -25 -341 -16 -449 19 -108 36
-196 90 -265 164 -54 57 -120 171 -120 205 0 9 32 28 83 47 45 18 87 35 93 37
6 3 27 -29 48 -70 64 -131 178 -207 333 -225 293 -32 486 94 487 320 1 101
-27 157 -110 220 -75 57 -161 93 -375 158 -320 97 -431 170 -501 328 -27 61
-36 216 -18 294 34 144 129 263 264 329 44 22 110 46 146 54 88 19 278 19 365
1z m-6735 -945 l0 -940 -105 0 -105 0 0 940 0 940 105 0 105 0 0 -940z m3735
13 c186 -511 340 -934 342 -940 4 -10 -20 -13 -100 -13 -74 0 -108 4 -114 13
-4 6 -47 118 -94 247 l-85 235 -481 3 -480 2 -11 -27 c-17 -42 -172 -466 -172
-470 0 -5 -206 -3 -212 2 -4 4 639 1779 672 1853 9 22 12 22 203 22 l194 0
338 -927z m1522 894 c236 -79 372 -268 373 -518 0 -91 -30 -214 -67 -278 -64
-111 -182 -201 -320 -246 -29 -9 -53 -18 -53 -21 0 -2 104 -172 230 -378 127
-206 233 -382 236 -391 5 -13 -10 -15 -113 -15 l-118 0 -230 385 -230 384
-212 1 -213 0 0 -385 0 -385 -105 0 -105 0 0 941 0 940 423 -3 422 -3 82 -28z"/>
<path d="M14595 9401 c-81 -14 -136 -31 -205 -65 -254 -124 -390 -367 -390
-696 0 -443 265 -747 670 -767 374 -19 661 205 735 576 24 117 16 344 -15 451
-71 244 -249 423 -485 485 -71 19 -239 27 -310 16z"/>
<path d="M5932 9240 c-121 -155 -204 -329 -224 -471 -29 -205 47 -379 282
-649 157 -180 263 -309 310 -379 53 -80 114 -208 133 -284 9 -33 17 -61 20
-63 6 -6 74 203 88 271 7 33 13 105 13 160 0 189 -48 301 -248 580 -151 211
-241 377 -280 516 -26 92 -52 313 -42 354 4 14 4 25 1 25 -3 0 -26 -27 -53
-60z"/>
<path d="M10820 9368 c-13 -29 -360 -979 -360 -984 0 -2 185 -4 411 -4 325 0
410 3 407 13 -3 6 -85 234 -184 505 l-178 492 -43 0 c-35 0 -45 -4 -53 -22z"/>
<path d="M3004 7915 c-224 -49 -271 -192 -146 -440 74 -148 202 -312 380 -488
l99 -99 7 99 c19 273 88 533 211 798 l42 92 -86 17 c-201 38 -392 46 -507 21z"/>
<path d="M3673 7713 c-71 -149 -134 -338 -165 -496 -17 -88 -22 -150 -22 -286
l-1 -175 70 -59 c92 -78 260 -204 415 -311 l125 -87 7 203 c8 266 41 453 120
700 l32 97 -37 78 c-45 96 -56 147 -57 245 l0 76 -80 31 c-75 28 -329 111
-341 111 -3 0 -33 -57 -66 -127z"/>
<path d="M4290 7598 c0 -24 11 -73 24 -109 95 -269 425 -488 741 -492 117 -2
186 13 251 55 46 29 47 31 29 45 -52 37 -349 210 -510 296 -171 92 -502 247
-524 247 -6 0 -11 -19 -11 -42z"/>
<path d="M4332 7098 c-67 -229 -95 -412 -95 -643 -1 -264 -15 -236 168 -344
133 -79 434 -241 446 -241 2 0 4 87 5 193 1 259 36 485 110 710 14 43 24 80
23 81 -2 2 -42 11 -89 20 -167 34 -350 124 -469 233 -38 34 -71 63 -74 63 -2
0 -14 -33 -25 -72z"/>
<path d="M5428 6973 c-54 -45 -124 -78 -218 -101 l-74 -18 -28 -85 c-79 -232
-118 -471 -118 -727 0 -230 2 -238 59 -266 39 -20 344 -146 353 -146 2 0 3 64
3 143 1 134 2 147 33 237 96 278 293 505 500 578 l51 18 -102 86 c-114 95
-236 189 -344 266 l-72 51 -43 -36z"/>
<path d="M5984 6462 c-67 -23 -172 -99 -231 -167 -74 -85 -146 -212 -183 -321
-29 -85 -34 -113 -34 -199 -1 -89 2 -105 24 -145 37 -66 82 -93 150 -88 156
11 330 166 440 393 59 122 80 205 80 316 0 72 -4 93 -26 138 -43 85 -115 109
-220 73z"/>
<path d="M13292 7123 c-3 -10 -86 -234 -183 -498 l-176 -480 405 -3 c223 -1
407 -1 409 1 2 3 -309 870 -352 980 -5 12 -19 17 -51 17 -33 0 -46 -5 -52 -17z"/>
<path d="M14680 6776 l0 -366 263 0 c333 0 398 12 499 92 23 18 50 55 70 96
32 64 33 72 33 182 0 142 -20 195 -101 269 -89 82 -103 84 -456 89 l-308 3 0
-365z"/>
</g>
</svg>
