<?xml version="1.0" standalone="no"?>
<!DOCTYPE svg PUBLIC "-//W3C//DTD SVG 20010904//EN"
 "http://www.w3.org/TR/2001/REC-SVG-20010904/DTD/svg10.dtd">
<svg version="1.0" xmlns="http://www.w3.org/2000/svg"
 width="712.000000pt" height="716.000000pt" viewBox="0 0 712.000000 716.000000"
 preserveAspectRatio="xMidYMid meet">

<g transform="translate(0.000000,716.000000) scale(0.100000,-0.100000)"
fill="#000000" stroke="none">
<path d="M0 3580 l0 -3580 3560 0 3560 0 0 3580 0 3580 -3560 0 -3560 0 0
-3580z m5194 2759 c42 -20 51 -58 35 -157 -9 -56 -14 -163 -14 -297 1 -183 4
-221 23 -296 58 -226 138 -382 337 -654 335 -458 407 -646 384 -1000 -10 -145
-60 -351 -115 -472 -8 -17 -14 -34 -14 -38 0 -33 -203 -427 -243 -472 -28 -32
-70 -38 -106 -17 -48 28 -54 62 -31 167 43 198 19 380 -75 572 -65 134 -154
255 -354 483 -268 306 -350 414 -428 563 -75 143 -123 321 -123 455 0 71 30
234 59 324 74 224 271 523 501 762 90 93 109 102 164 77z m-3644 -2004 c206
-23 466 -81 710 -157 140 -44 216 -70 247 -84 17 -8 36 -14 43 -14 7 0 26 -6
43 -14 18 -8 86 -36 152 -62 66 -25 138 -54 160 -64 22 -10 94 -41 160 -70
276 -121 709 -350 1000 -529 462 -283 982 -679 1316 -1002 111 -107 153 -217
153 -399 -1 -401 -282 -863 -639 -1052 -67 -35 -166 -60 -243 -61 -66 0 -97 6
-217 46 -127 42 -173 58 -330 117 -61 22 -219 86 -260 104 -16 8 -52 24 -80
36 -118 53 -191 88 -375 180 -107 53 -219 111 -248 129 -29 17 -55 31 -58 31
-7 0 -262 147 -384 221 -589 361 -1109 763 -1470 1135 -413 426 -610 762 -610
1041 0 206 111 354 324 433 127 48 366 62 606 35z"/>
<path d="M4975 5923 c-104 -131 -210 -308 -259 -433 -31 -78 -66 -244 -66
-310 0 -65 34 -223 63 -290 72 -170 147 -272 462 -631 199 -226 326 -409 390
-559 45 -108 54 -133 61 -175 11 -67 19 -69 41 -13 121 306 144 560 71 787
-43 136 -109 251 -273 476 -260 359 -339 509 -405 775 -23 92 -43 332 -33 393
3 20 3 37 -1 37 -3 0 -26 -26 -51 -57z"/>
<path d="M1129 4155 c-215 -34 -329 -133 -329 -285 0 -48 34 -194 50 -215 4
-5 11 -21 15 -35 21 -71 147 -264 269 -415 102 -127 356 -392 385 -403 4 -1
12 74 19 166 12 166 41 345 83 500 23 85 84 270 104 317 56 128 92 208 116
254 16 30 28 55 26 56 -14 9 -243 48 -349 60 -163 18 -272 18 -389 0z"/>
<path d="M1980 3908 c-123 -256 -220 -570 -249 -815 -15 -124 -25 -362 -17
-423 7 -53 10 -57 79 -116 124 -105 452 -348 622 -463 l110 -73 7 243 c9 356
58 643 164 956 19 56 34 109 34 117 0 8 -15 44 -34 80 -60 114 -79 188 -84
324 l-4 122 -32 15 c-17 8 -51 21 -76 30 -162 56 -313 105 -360 118 -30 8 -63
18 -73 22 -14 6 -28 -16 -87 -137z"/>
<path d="M2790 3732 c1 -80 15 -135 60 -225 107 -212 332 -405 589 -503 143
-54 217 -68 371 -68 130 1 152 3 216 26 79 29 157 74 152 89 -3 10 -142 98
-298 189 -58 33 -112 65 -120 70 -174 104 -550 296 -800 407 -30 13 -68 30
-85 38 -16 8 -42 19 -57 24 l-28 11 0 -58z"/>
<path d="M2857 3123 c-28 -71 -89 -338 -113 -493 -28 -182 -40 -474 -26 -629
9 -98 11 -106 38 -127 64 -51 738 -424 766 -424 6 0 7 53 3 133 -15 315 47
745 156 1069 16 48 29 90 29 92 0 3 -17 8 -37 11 -210 35 -402 109 -572 219
-66 44 -189 147 -204 173 -13 22 -24 15 -40 -24z"/>
<path d="M4300 2909 c-62 -54 -181 -113 -270 -134 -41 -10 -86 -21 -100 -24
-20 -6 -30 -25 -62 -117 -72 -205 -111 -388 -148 -689 -13 -104 -10 -556 4
-585 4 -8 53 -35 109 -59 56 -25 125 -55 154 -68 28 -13 55 -23 58 -23 4 0 21
-6 38 -14 55 -25 163 -66 174 -66 7 0 7 17 1 53 -17 88 -3 289 26 387 65 223
168 409 316 572 110 121 276 234 387 262 l46 12 -176 144 c-224 184 -423 335
-502 382 -5 3 -30 -12 -55 -33z"/>
<path d="M5040 2229 c-110 -38 -206 -105 -307 -213 -87 -93 -131 -162 -233
-366 -4 -8 -20 -58 -36 -110 -25 -83 -28 -111 -29 -225 0 -115 3 -135 22 -175
48 -95 99 -130 191 -130 115 0 241 68 377 205 108 108 218 277 255 392 7 21
16 43 20 48 21 29 52 203 51 291 0 236 -124 349 -311 283z"/>
</g>
</svg>
